<svg xmlns="http://www.w3.org/2000/svg" viewBox="0 0 216 215" fill="currentColor" aria-hidden="true"><path fill-rule="evenodd" d="M 95.7,1.0999999999999943 C 52.6,5.599999999999994 15.699999999999989,37.5 4.0,80.5 C 0.8999999999999999,91.8 0.09999999999999964,115.0 2.4000000000000004,127.39999999999999 C 12.700000000000001,181.89999999999998 63.4,219.89999999999998 118.30000000000001,214.2 C 141.9,211.7 159.60000000000002,204.0 178.8,188.0 C 193.10000000000002,176.1 206.3,154.5 211.70000000000002,134.5 C 214.10000000000002,125.5 214.4,122.8 214.4,107.5 C 214.4,92.3 214.1,89.5 211.70000000000002,80.79999999999998 C 200.00000000000003,37.099999999999994 163.4,5.599999999999966 118.9,1.0 C 107.80000000000001,-0.09999999999999432 107.0,-0.09999999999999432 95.7,1.0999999999999943 M 131.5,11.799999999999983 C 152.2,17.599999999999994 166.7,26.299999999999983 180.4,41.19999999999999 C 197.1,59.19999999999999 206.1,82.1 206.3,107.0 C 206.4,135.10000000000002 196.3,159.0 175.60000000000002,178.8 C 161.60000000000002,192.2 145.40000000000003,200.6 125.9,204.6 C 113.80000000000001,207.0 93.6,206.1 81.5,202.6 C 40.699999999999996,190.7 12.099999999999994,155.39999999999998 9.3,113.5 C 7.9,92.2 14.700000000000003,68.5 27.5,50.5 C 33.5,42.099999999999994 47.099999999999994,29.30000000000001 56.0,23.799999999999983 C 65.4,17.99999999999997 77.0,13.299999999999983 88.0,10.899999999999977 C 99.2,8.399999999999977 121.0,8.899999999999977 131.5,11.799999999999983 M 106.7,23.599999999999994 C 105.4,28.0 103.0,42.599999999999994 101.30000000000001,56.599999999999994 C 98.80000000000001,77.69999999999999 98.80000000000001,126.4 101.30000000000001,144.0 C 102.30000000000001,150.9 103.70000000000002,164.60000000000002 104.5,174.4 C 106.8,203.8 108.2,205.2 110.0,179.9 C 110.6,171.4 111.7,160.2 112.5,155.0 C 117.7,120.1 116.9,72.80000000000001 110.4,34.0 C 108.60000000000001,23.400000000000006 107.60000000000001,20.5 106.7,23.599999999999994 M 35.0,85.79999999999998 C 35.0,96.39999999999998 49.2,122.39999999999998 63.7,138.0 C 75.30000000000001,150.6 96.4,166.9 98.4,164.9 C 100.30000000000001,163.0 87.80000000000001,136.1 78.4,121.69999999999999 C 68.2,105.99999999999999 47.2,86.6 37.300000000000004,83.6 C 35.300000000000004,82.9 35.00000000000001,83.19999999999999 35.00000000000001,85.79999999999998 M 173.0,86.6 C 155.0,98.5 137.9,116.3 127.60000000000001,134.0 C 122.80000000000001,142.2 117.30000000000001,155.5 116.4,160.9 C 115.80000000000001,164.6 116.0,165.0 117.7,165.0 C 121.2,165.0 134.9,155.2 144.0,146.2 C 157.0,133.3 170.4,111.7 177.4,92.19999999999999 C 181.3,81.29999999999998 181.20000000000002,81.19999999999999 173.0,86.6"/></svg>